HIERARCHY
ROOT hip
{
  OFFSET 0 0 0
  CHANNELS 6 Xposition Yposition Zposition Zrotation Yrotation Xrotation
  JOINT abdomen
  {
    OFFSET 0 20.6881 -0.73152
    CHANNELS 3 Zrotation Xrotation Yrotation
    JOINT chest
    {
      OFFSET 0 11.7043 -0.48768
      CHANNELS 3 Zrotation Xrotation Yrotation
      JOINT neck
      {
        OFFSET 0 22.1894 -2.19456
        CHANNELS 3 Zrotation Xrotation Yrotation
        JOINT head
        {
          OFFSET -0.24384 7.07133 1.2192
          CHANNELS 3 Zrotation Xrotation Yrotation
          JOINT leftEye
          {
            OFFSET 4.14528 8.04674 8.04672
            CHANNELS 3 Zrotation Xrotation Yrotation
            End Site
            {
              OFFSET 1 0 0
            }
          }
          JOINT rightEye
          {
            OFFSET -3.6576 8.04674 8.04672
            CHANNELS 3 Zrotation Xrotation Yrotation
            End Site
            {
              OFFSET 1 0 0
            }
          }
        }
      }
      JOINT rCollar
      {
        OFFSET -2.68224 19.2634 -4.8768
        CHANNELS 3 Zrotation Xrotation Yrotation
        JOINT rShldr
        {
          OFFSET -8.77824 -1.95073 1.46304
          CHANNELS 3 Zrotation Xrotation Yrotation
          JOINT rForeArm
          {
            OFFSET -28.1742 -1.7115 0.48768
            CHANNELS 3 Zrotation Xrotation Yrotation
            JOINT rHand
            {
              OFFSET -22.5879 0.773209 7.07136
              CHANNELS 3 Zrotation Xrotation Yrotation
              JOINT rThumb1
              {
                OFFSET -1.2192 -0.487915 3.41376
                CHANNELS 3 Zrotation Xrotation Yrotation
                JOINT rThumb2
                {
                  OFFSET -3.37035 -0.52449 3.41376
                  CHANNELS 3 Zrotation Xrotation Yrotation
                  End Site
                  {
                    OFFSET -1.78271 -1.18214 1.43049
                  }
                }
              }
              JOINT rIndex1
              {
                OFFSET -7.75947 0.938293 5.60832
                CHANNELS 3 Zrotation Xrotation Yrotation
                JOINT rIndex2
                {
                  OFFSET -2.54057 -0.884171 1.56538
                  CHANNELS 3 Zrotation Xrotation Yrotation
                  End Site
                  {
                    OFFSET -1.62519 -0.234802 1.16502
                  }
                }
              }
              JOINT rMid1
              {
                OFFSET -8.24714 1.18213 3.41376
                CHANNELS 3 Zrotation Xrotation Yrotation
                JOINT rMid2
                {
                  OFFSET -3.10165 -0.590103 1.0647
                  CHANNELS 3 Zrotation Xrotation Yrotation
                  End Site
                  {
                    OFFSET -2.48547 -0.328903 0.83742
                  }
                }
              }
              JOINT rRing1
              {
                OFFSET -8.82822 0.546677 1.51678
                CHANNELS 3 Zrotation Xrotation Yrotation
                JOINT rRing2
                {
                  OFFSET -2.60934 -0.819778 -0.0198488
                  CHANNELS 3 Zrotation Xrotation Yrotation
                  End Site
                  {
                    OFFSET -2.33842 -0.294052 0.168128
                  }
                }
              }
              JOINT rPinky1
              {
                OFFSET -8.27202 -0.0477905 -0.4584
                CHANNELS 3 Zrotation Xrotation Yrotation
                JOINT rPinky2
                {
                  OFFSET -1.82734 -0.647385 -0.700984
                  CHANNELS 3 Zrotation Xrotation Yrotation
                  End Site
                  {
                    OFFSET -1.69225 -0.51767 -0.607171
                  }
                }
              }
            }
          }
        }
      }
      JOINT lCollar
      {
        OFFSET 2.68224 19.2634 -4.8768
        CHANNELS 3 Zrotation Xrotation Yrotation
        JOINT lShldr
        {
          OFFSET 8.77824 -1.95073 1.46304
          CHANNELS 3 Zrotation Xrotation Yrotation
          JOINT lForeArm
          {
            OFFSET 28.1742 -1.7115 0.48768
            CHANNELS 3 Zrotation Xrotation Yrotation
            JOINT lHand
            {
              OFFSET 22.5879 0.773209 7.07136
              CHANNELS 3 Zrotation Xrotation Yrotation
              JOINT lThumb1
              {
                OFFSET 1.2192 -0.487915 3.41376
                CHANNELS 3 Zrotation Xrotation Yrotation
                JOINT lThumb2
                {
                  OFFSET 3.37035 -0.52449 3.41376
                  CHANNELS 3 Zrotation Xrotation Yrotation
                  End Site
                  {
                    OFFSET 1.78271 -1.18214 1.43049
                  }
                }
              }
              JOINT lIndex1
              {
                OFFSET 7.75947 0.938293 5.60832
                CHANNELS 3 Zrotation Xrotation Yrotation
                JOINT lIndex2
                {
                  OFFSET 2.54057 -0.884171 1.56538
                  CHANNELS 3 Zrotation Xrotation Yrotation
                  End Site
                  {
                    OFFSET 1.62519 -0.234802 1.16502
                  }
                }
              }
              JOINT lMid1
              {
                OFFSET 8.24714 1.18213 3.41376
                CHANNELS 3 Zrotation Xrotation Yrotation
                JOINT lMid2
                {
                  OFFSET 3.10165 -0.590103 1.0647
                  CHANNELS 3 Zrotation Xrotation Yrotation
                  End Site
                  {
                    OFFSET 2.48547 -0.328903 0.83742
                  }
                }
              }
              JOINT lRing1
              {
                OFFSET 8.82822 0.546677 1.51678
                CHANNELS 3 Zrotation Xrotation Yrotation
                JOINT lRing2
                {
                  OFFSET 2.60934 -0.819778 -0.0198488
                  CHANNELS 3 Zrotation Xrotation Yrotation
                  End Site
                  {
                    OFFSET 2.33842 -0.294052 0.168128
                  }
                }
              }
              JOINT lPinky1
              {
                OFFSET 8.27202 -0.0477905 -0.4584
                CHANNELS 3 Zrotation Xrotation Yrotation
                JOINT lPinky2
                {
                  OFFSET 1.82734 -0.647385 -0.700984
                  CHANNELS 3 Zrotation Xrotation Yrotation
                  End Site
                  {
                    OFFSET 1.69225 -0.51767 -0.607171
                  }
                }
              }
            }
          }
        }
      }
    }
  }
  JOINT rButtock
  {
    OFFSET -8.77824 4.35084 1.2192
    CHANNELS 3 Zrotation Xrotation Yrotation
    JOINT rThigh
    {
      OFFSET 0 -1.70687 -2.19456
      CHANNELS 3 Zrotation Xrotation Yrotation
      JOINT rShin
      {
        OFFSET 0 -36.8199 0.73152
        CHANNELS 3 Zrotation Xrotation Yrotation
        JOINT rFoot
        {
          OFFSET 0.73152 -45.1104 -5.12064
          CHANNELS 3 Zrotation Xrotation Yrotation
          End Site
          {
            OFFSET -1.1221 -3.69964 12.103
          }
        }
      }
    }
  }
  JOINT lButtock
  {
    OFFSET 8.77824 4.35084 1.2192
    CHANNELS 3 Zrotation Xrotation Yrotation
    JOINT lThigh
    {
      OFFSET 0 -1.70687 -2.19456
      CHANNELS 3 Zrotation Xrotation Yrotation
      JOINT lShin
      {
        OFFSET 0 -36.8199 0.73152
        CHANNELS 3 Zrotation Xrotation Yrotation
        JOINT lFoot
        {
          OFFSET -0.73152 -45.1104 -5.12064
          CHANNELS 3 Zrotation Xrotation Yrotation
          End Site
          {
            OFFSET 1.1221 -3.69964 12.103
          }
        }
      }
    }
  }
}
MOTION
Frames:	4
Frame Time:	0.00833333
-213.792 84.0179 -5.24735 0.0 0.0 0.0 -1.65551 -0.00357567 -0.0452724 -0.4571 0.000154955 -0.0791639 9.64175e-17 0.0 -3.6104e-25 4.03781e-16 3.18055e-15 -2.79541e-17 -0.0 0.0 0.0 -0.0 0.0 0.0 2.4709e-16 -1.28123e-17 9.93923e-17 3.56114e-15 -6.27414e-16 3.97569e-16 1.05853e-14 -1.27222e-14 1.90833e-14 1.43572e-13 -4.34096e-14 -1.08139e-13 3.27656e-13 -1.17247e-13 -1.87653e-13 5.57392e-13 -2.00375e-13 -3.29187e-13 3.33561e-13 -1.15693e-13 -2.00375e-13 7.73091 5.47488 0.417314 3.28144e-13 -1.17482e-13 -1.84472e-13 2.90554 0.965183 0.102902 3.34977e-13 -1.16885e-13 -1.92424e-13 10.2786 0.731801 0.0259123 3.24417e-13 -1.145e-13 -1.84472e-13 2.22167 -0.733487 -0.20892 1.5048e-16 -1.06769e-17 -1.49089e-16 -7.7427e-16 -4.53478e-16 -1.19271e-15 1.30204e-14 -6.95746e-15 -6.36111e-15 1.27645e-13 -5.27028e-14 -7.63333e-14 3.04588e-13 -1.27288e-13 -2.00375e-13 5.30755e-13 -2.19458e-13 -3.35549e-13 2.99767e-13 -1.24042e-13 -1.84472e-13 -7.73091 5.47488 -0.417314 3.04538e-13 -1.2762e-13 -1.94014e-13 -2.90554 0.965183 -0.102902 3.00227e-13 -1.27421e-13 -1.90038e-13 -10.2786 0.731801 -0.0259123 3.08315e-13 -1.24042e-13 -1.87653e-13 -2.22167 -0.733487 0.20892 -2.03217e-16 0.0 -3.88251e-19 -0.803407 -1.9234 -0.00371749 -0.00881878 -2.07862 -0.0725741 -0.452068 3.99778 0.131437 2.03217e-16 0.0 3.88251e-19 -1.71758 -6.77988 0.164468 -0.00322855 6.71845 -0.0840751 0.482102 0.0572844 -0.055896
-208.418 82.9639 -9.76605 -12.4947 82.3908 -10.8865 -0.97436 4.88769 -0.850384 0.289948 -1.12005 -0.243557 -0.354822 3.69192 0.768958 -1.9447 -13.2445 0.930163 -0.0 0.0 0.0 -0.0 0.0 0.0 1.3681e-14 -2.60314e-13 4.84697e-14 19.1944 11.1566 -2.89753 -6.97877 -4.01775 9.82449 0.000405835 -0.447021 -0.0628178 -4.84007e-11 3.56246e-11 2.71684e-12 -8.29775e-11 6.17099e-11 4.89338e-12 -4.83961e-11 3.56261e-11 2.70812e-12 7.73091 5.47488 0.417314 -4.84007e-11 3.56249e-11 2.72009e-12 2.90554 0.965183 0.102902 -4.83952e-11 3.5625e-11 2.71379e-12 10.2786 0.731801 0.0259123 -4.84041e-11 3.56268e-11 2.7227e-12 2.22167 -0.733487 -0.20892 1.35565e-14 -2.60315e-13 4.82018e-14 -22.0525 7.76279 4.65558 8.21075 -5.12101 -10.9603 -0.00291152 -1.197 0.168095 -2.42982e-10 1.92503e-10 1.59813e-10 -4.21383e-10 3.33623e-10 2.76802e-10 -2.42985e-10 1.92507e-10 1.59827e-10 -7.73091 5.47488 -0.417314 -2.42982e-10 1.92506e-10 1.59819e-10 -2.90554 0.965183 -0.102902 -2.42986e-10 1.92504e-10 1.59822e-10 -10.2786 0.731801 -0.0259123 -2.42977e-10 1.92508e-10 1.59823e-10 -2.22167 -0.733487 0.20892 -2.03217e-16 0.0 -3.88251e-19 0.523749 -1.42703 2.4222 -0.000904537 3.1389 0.0341098 -0.704443 -2.5737 -1.84351 2.03217e-16 0.0 3.88251e-19 0.291525 -11.8311 -1.28032 0.0336818 13.6125 -0.133989 0.0113356 -3.30659 -3.39087
-208.472 82.9435 -9.72753 -12.4558 82.0639 -10.642 -0.102397 10.0542 -1.72207 1.07243 -2.30404 -0.417718 -0.846943 7.5989 1.59242 -3.46636 -27.2415 2.10006 -0.0 0.0 0.0 -0.0 0.0 0.0 2.73509e-14 -5.46487e-13 1.04694e-13 40.8042 22.8514 -6.34613 -12.8757 -7.86886 20.3583 -0.000230593 -0.91821 -0.129045 -9.28436e-11 8.49584e-11 4.45874e-12 -1.59009e-10 1.47187e-10 8.09953e-12 -9.28406e-11 8.49597e-11 4.45457e-12 7.73091 5.47488 0.417314 -9.28443e-11 8.49594e-11 4.46212e-12 2.90554 0.965183 0.102902 -9.28402e-11 8.49587e-11 4.4575e-12 10.2786 0.731801 0.0259123 -9.28473e-11 8.496e-11 4.46749e-12 2.22167 -0.733487 -0.20892 2.71924e-14 -5.46491e-13 1.04402e-13 -46.7802 15.7895 9.86474 14.7866 -9.90528 -22.8126 0.00165231 -2.46095 0.34584 -5.04287e-10 4.14355e-10 3.50363e-10 -8.74683e-10 7.18142e-10 6.0688e-10 -5.04289e-10 4.14358e-10 3.50376e-10 -7.73091 5.47488 -0.417314 -5.04287e-10 4.1436e-10 3.5037e-10 -2.90554 0.965183 -0.102902 -5.04291e-10 4.14357e-10 3.50371e-10 -10.2786 0.731801 -0.0259123 -5.0428e-10 4.14361e-10 3.50371e-10 -2.22167 -0.733487 0.20892 -2.03217e-16 0.0 -3.88251e-19 1.8808 -0.899173 4.98528 -0.0137795 8.65184 0.148418 -1.46896 -9.5046 -3.98144 2.03217e-16 0.0 3.88251e-19 2.12611 -17.1537 -2.88106 0.0868131 20.8991 -0.192264 -0.913756 -6.8251 -6.95363
-208.479 82.941 -9.72331 -12.59 82.0558 -10.7474 0.812142 14.6581 -2.53385 1.76473 -3.36033 -0.57319 -1.36646 11.0677 2.34574 -4.21733 -39.685 3.53051 -0.0 0.0 0.0 -0.0 0.0 0.0 4.05489e-14 -7.80915e-13 1.4521e-13 61.5083 33.0929 -10.1956 -16.9469 -10.6369 29.9664 -0.00172379 -1.34106 -0.188499 -1.45857e-10 1.07108e-10 8.52583e-12 -2.50047e-10 1.85531e-10 1.53385e-11 -1.45855e-10 1.0711e-10 8.5251e-12 7.73091 5.47488 0.417314 -1.45858e-10 1.0711e-10 8.52923e-12 2.90554 0.965183 0.102902 -1.45856e-10 1.07109e-10 8.52621e-12 10.2786 0.731801 0.0259123 -1.45861e-10 1.07109e-10 8.53705e-12 2.22167 -0.733487 -0.20892 4.03685e-14 -7.80922e-13 1.44904e-13 -70.1664 22.648 15.0209 18.9877 -13.1111 -33.7399 0.0123711 -3.59088 0.505167 -7.29554e-10 5.77765e-10 4.79839e-10 -1.26521e-09 1.00131e-09 8.31076e-10 -7.29555e-10 5.77768e-10 4.7985e-10 -7.73091 5.47488 -0.417314 -7.29554e-10 5.77772e-10 4.79845e-10 -2.90554 0.965183 -0.102902 -7.29559e-10 5.77768e-10 4.79845e-10 -10.2786 0.731801 -0.0259123 -7.29546e-10 5.77772e-10 4.79843e-10 -2.22167 -0.733487 0.20892 -2.03217e-16 0.0 -3.88251e-19 3.05219 -0.434593 7.272 -0.0444292 13.5738 0.254333 -2.60484 -15.6385 -6.01046 2.03217e-16 0.0 3.88251e-19 3.492 -21.8834 -4.40387 0.148517 27.4005 -0.251945 -2.11334 -9.89608 -10.1972
